<?xml version="1.0" encoding="UTF-8"?>
<!DOCTYPE svg PUBLIC "-//W3C//DTD SVG 1.1//EN" "http://www.w3.org/Graphics/SVG/1.1/DTD/svg11.dtd">
<!-- Creator: CorelDRAW -->
<svg xmlns="http://www.w3.org/2000/svg" xml:space="preserve" width="99px" height="33px" style="shape-rendering:geometricPrecision; text-rendering:geometricPrecision; image-rendering:optimizeQuality; fill-rule:evenodd; clip-rule:evenodd"
viewBox="0 0 54.4374 13.7788"
 xmlns:xlink="http://www.w3.org/1999/xlink">
 <defs>
  <style type="text/css">
   <![CDATA[
    .str0 {stroke:black;stroke-width:0.225896}
    .fil2 {fill:none}
    .fil0 {fill:url(#id1)}
    .fil1 {fill:url(#id2)}
   ]]>
  </style>
   <clipPath id="id0">
    <path d="M1.6024 0.112948l51.2326 0c0.819193,0 1.48945,0.900318 1.48945,2.00073l0 9.55146c0,1.10047 -0.67026,2.00073 -1.48945,2.00073l-51.2326 0c-0.819193,0 -1.48945,-0.900254 -1.48945,-2.00073l0 -9.55146c0,-1.10041 0.67026,-2.00073 1.48945,-2.00073z"/>
   </clipPath>
  <linearGradient id="id1" gradientUnits="userSpaceOnUse" x1="27.2187" y1="33.9952" x2="27.2187" y2="-20.2163">
   <stop offset="0" style="stop-color:black"/>
   <stop offset="0.0588235" style="stop-color:#030303"/>
   <stop offset="0.478431" style="stop-color:white"/>
   <stop offset="0.941176" style="stop-color:black"/>
   <stop offset="1" style="stop-color:black"/>
  </linearGradient>
  <linearGradient id="id2" gradientUnits="userSpaceOnUse" x1="9.19264" y1="13.6658" x2="9.19264" y2="0.113012">
   <stop offset="0" style="stop-color:black"/>
   <stop offset="0.211765" style="stop-color:black"/>
   <stop offset="0.501961" style="stop-color:#B2B2B2"/>
   <stop offset="0.788235" style="stop-color:black"/>
   <stop offset="1" style="stop-color:black"/>
  </linearGradient>
 </defs>
 <g id="Layer_x0020_1">
  <metadata id="CorelCorpID_0Corel-Layer"/>
  <path class="fil0" d="M1.6024 0.112948l51.2326 0c0.819193,0 1.48945,0.900318 1.48945,2.00073l0 9.55146c0,1.10047 -0.67026,2.00073 -1.48945,2.00073l-51.2326 0c-0.819193,0 -1.48945,-0.900254 -1.48945,-2.00073l0 -9.55146c0,-1.10041 0.67026,-2.00073 1.48945,-2.00073z"/>
  <g style="clip-path:url(#id0)">
   <g id="_137245360">
    <rect id="_137243080" class="fil1" x="0.112824" y="0.112982" width="18.1596" height="13.5529"/>
   </g>
  </g>
  <path class="fil2 str0" d="M1.6024 0.112948l51.2326 0c0.819193,0 1.48945,0.900318 1.48945,2.00073l0 9.55146c0,1.10047 -0.67026,2.00073 -1.48945,2.00073l-51.2326 0c-0.819193,0 -1.48945,-0.900254 -1.48945,-2.00073l0 -9.55146c0,-1.10041 0.67026,-2.00073 1.48945,-2.00073z"/>
  <rect class="fil1" x="18.0025" y="0.112984" width="1.62632" height="13.5529"/>
  <line class="fil2 str0" x1="1.61124" y1="0.113076" x2="52.8262" y2= "0.113076" />
  <line class="fil2 str0" x1="1.61124" y1="13.6657" x2="52.8262" y2= "13.6657" />
 </g>
</svg>
