<?xml version="1.0" encoding="UTF-8"?>
<!DOCTYPE svg PUBLIC "-//W3C//DTD SVG 1.1//EN" "http://www.w3.org/Graphics/SVG/1.1/DTD/svg11.dtd">
<!-- Creator: CorelDRAW -->
<svg xmlns="http://www.w3.org/2000/svg" xml:space="preserve" width="100px" height="33px" style="shape-rendering:geometricPrecision; text-rendering:geometricPrecision; image-rendering:optimizeQuality; fill-rule:evenodd; clip-rule:evenodd"
viewBox="0 0 54.9873 13.918"
 xmlns:xlink="http://www.w3.org/1999/xlink">
 <defs>
  <style type="text/css">
   <![CDATA[
    .str0 {stroke:black;stroke-width:0.228178}
    .fil2 {fill:none}
    .fil0 {fill:url(#id1)}
    .fil1 {fill:url(#id2)}
   ]]>
  </style>
   <clipPath id="id0">
    <path d="M1.61859 0.114089l51.7501 0c0.827467,0 1.5045,0.909412 1.5045,2.02094l0 9.64794c0,1.11159 -0.67703,2.02094 -1.5045,2.02094l-51.7501 0c-0.827467,0 -1.5045,-0.909347 -1.5045,-2.02094l0 -9.64794c0,-1.11153 0.67703,-2.02094 1.5045,-2.02094z"/>
   </clipPath>
  <linearGradient id="id1" gradientUnits="userSpaceOnUse" x1="27.4937" y1="34.3386" x2="27.4937" y2="-20.4205">
   <stop offset="0" style="stop-color:black"/>
   <stop offset="0.0588235" style="stop-color:#030303"/>
   <stop offset="0.478431" style="stop-color:white"/>
   <stop offset="0.941176" style="stop-color:black"/>
   <stop offset="1" style="stop-color:black"/>
  </linearGradient>
  <linearGradient id="id2" gradientUnits="userSpaceOnUse" x1="9.2855" y1="13.8038" x2="9.2855" y2="0.114153">
   <stop offset="0" style="stop-color:black"/>
   <stop offset="0.211765" style="stop-color:black"/>
   <stop offset="0.501961" style="stop-color:#B2B2B2"/>
   <stop offset="0.788235" style="stop-color:black"/>
   <stop offset="1" style="stop-color:black"/>
  </linearGradient>
 </defs>
 <g id="Layer_x0020_1">
  <metadata id="CorelCorpID_0Corel-Layer"/>
  <path class="fil0" d="M1.61859 0.114089l51.7501 0c0.827467,0 1.5045,0.909412 1.5045,2.02094l0 9.64794c0,1.11159 -0.67703,2.02094 -1.5045,2.02094l-51.7501 0c-0.827467,0 -1.5045,-0.909347 -1.5045,-2.02094l0 -9.64794c0,-1.11153 0.67703,-2.02094 1.5045,-2.02094z"/>
  <g style="clip-path:url(#id0)">
   <g id="_137245360">
    <rect id="_137243080" class="fil1" x="0.113963" y="0.114124" width="18.343" height="13.6898"/>
   </g>
  </g>
  <path class="fil2 str0" d="M1.61859 0.114089l51.7501 0c0.827467,0 1.5045,0.909412 1.5045,2.02094l0 9.64794c0,1.11159 -0.67703,2.02094 -1.5045,2.02094l-51.7501 0c-0.827467,0 -1.5045,-0.909347 -1.5045,-2.02094l0 -9.64794c0,-1.11153 0.67703,-2.02094 1.5045,-2.02094z"/>
  <rect class="fil1" x="18.1835" y="0.114125" width="25.1888" height="13.6897"/>
  <line class="fil2 str0" x1="1.62751" y1="0.114218" x2="53.3598" y2= "0.114218" />
  <line class="fil2 str0" x1="1.62751" y1="13.8038" x2="53.3598" y2= "13.8038" />
 </g>
</svg>
